# xmcd
#
# Track frame offsets:
#	150
#	14837
#	26864
#	45266
#	55323
#	68515
#	79632
#	92759
#	103666
#	118351
#	129920
#
# Disc length: 1989 seconds
#
# Revision: 0
# Processed by: cddbd v1.4PL0 Copyright (c) Steve Scherf et al.
# Submitted via: EasyCDDAExtractor 4.5.0.2
#
DISCID=8e07c30b
DTITLE=Chris Hillman - Desert Rose
DYEAR=1990
DGENRE=Country
TTITLE0=Why You Been Gone So Long
TTITLE1=Somebody's Back In Town
TTITLE2=Wall Around Your Heart
TTITLE3=Rough and Rowdy Ways
TTITLE4=Desert Rose
TTITLE5=Running The Roadblocks
TTITLE6=I Can't Keep You In Love With Me
TTITLE7=Treasure Of Love
TTITLE8=Ashes Of Love
TTITLE9=Turn Your Radio On
TTITLE10=Emmylou Harris - When I Paint My Masterpiece
EXTD=
EXTT0=
EXTT1=
EXTT2=
EXTT3=
EXTT4=
EXTT5=
EXTT6=
EXTT7=
EXTT8=
EXTT9=
EXTT10=
PLAYORDER=
